<svg xmlns="http://www.w3.org/2000/svg" version="1.1" xmlns:xlink="http://www.w3.org/1999/xlink" xmlns:svgjs="http://svgjs.com/svgjs" width="1920" height="1080" preserveAspectRatio="none" viewBox="0 0 1920 1080"><g mask="url(&quot;#SvgjsMask4849&quot;)" fill="none"><rect width="1920" height="1080" x="0" y="0" fill="url(#SvgjsLinearGradient4850)"></rect><use xlink:href="#SvgjsSymbol4857" x="0" y="0"></use><use xlink:href="#SvgjsSymbol4857" x="0" y="720"></use><use xlink:href="#SvgjsSymbol4857" x="720" y="0"></use><use xlink:href="#SvgjsSymbol4857" x="720" y="720"></use><use xlink:href="#SvgjsSymbol4857" x="1440" y="0"></use><use xlink:href="#SvgjsSymbol4857" x="1440" y="720"></use></g><defs><mask id="SvgjsMask4849"><rect width="1920" height="1080" fill="#ffffff"></rect></mask><linearGradient x1="50%" y1="0%" x2="50%" y2="100%" gradientUnits="userSpaceOnUse" id="SvgjsLinearGradient4850"><stop stop-color="#0e2a47" offset="0"></stop><stop stop-color="rgba(227, 138, 29, 1)" offset="1"></stop></linearGradient><path d="M-1 0 a1 1 0 1 0 2 0 a1 1 0 1 0 -2 0z" id="SvgjsPath4853"></path><path d="M-3 0 a3 3 0 1 0 6 0 a3 3 0 1 0 -6 0z" id="SvgjsPath4856"></path><path d="M-5 0 a5 5 0 1 0 10 0 a5 5 0 1 0 -10 0z" id="SvgjsPath4851"></path><path d="M2 -2 L-2 2z" id="SvgjsPath4855"></path><path d="M6 -6 L-6 6z" id="SvgjsPath4854"></path><path d="M30 -30 L-30 30z" id="SvgjsPath4852"></path></defs><symbol id="SvgjsSymbol4857"><use xlink:href="#SvgjsPath4851" x="30" y="30" stroke="rgba(87, 90, 66, 1)"></use><use xlink:href="#SvgjsPath4852" x="30" y="90" stroke="rgba(87, 90, 66, 1)" stroke-width="3"></use><use xlink:href="#SvgjsPath4853" x="30" y="150" stroke="rgba(87, 90, 66, 1)"></use><use xlink:href="#SvgjsPath4854" x="30" y="210" stroke="rgba(87, 90, 66, 1)"></use><use xlink:href="#SvgjsPath4855" x="30" y="270" stroke="rgba(87, 90, 66, 1)"></use><use xlink:href="#SvgjsPath4854" x="30" y="330" stroke="rgba(87, 90, 66, 1)"></use><use xlink:href="#SvgjsPath4854" x="30" y="390" stroke="rgba(87, 90, 66, 1)"></use><use xlink:href="#SvgjsPath4851" x="30" y="450" stroke="rgba(87, 90, 66, 1)"></use><use xlink:href="#SvgjsPath4854" x="30" y="510" stroke="rgba(87, 90, 66, 1)"></use><use xlink:href="#SvgjsPath4854" x="30" y="570" stroke="rgba(87, 90, 66, 1)"></use><use xlink:href="#SvgjsPath4856" x="30" y="630" stroke="rgba(87, 90, 66, 1)"></use><use xlink:href="#SvgjsPath4854" x="30" y="690" stroke="rgba(87, 90, 66, 1)"></use><use xlink:href="#SvgjsPath4851" x="90" y="30" stroke="rgba(87, 90, 66, 1)"></use><use xlink:href="#SvgjsPath4851" x="90" y="90" stroke="rgba(87, 90, 66, 1)"></use><use xlink:href="#SvgjsPath4856" x="90" y="150" stroke="rgba(87, 90, 66, 1)"></use><use xlink:href="#SvgjsPath4854" x="90" y="210" stroke="rgba(87, 90, 66, 1)"></use><use xlink:href="#SvgjsPath4851" x="90" y="270" stroke="rgba(87, 90, 66, 1)"></use><use xlink:href="#SvgjsPath4854" x="90" y="330" stroke="rgba(87, 90, 66, 1)"></use><use xlink:href="#SvgjsPath4854" x="90" y="390" stroke="rgba(87, 90, 66, 1)"></use><use xlink:href="#SvgjsPath4855" x="90" y="450" stroke="rgba(87, 90, 66, 1)"></use><use xlink:href="#SvgjsPath4854" x="90" y="510" stroke="rgba(87, 90, 66, 1)"></use><use xlink:href="#SvgjsPath4856" x="90" y="570" stroke="rgba(87, 90, 66, 1)"></use><use xlink:href="#SvgjsPath4855" x="90" y="630" stroke="rgba(87, 90, 66, 1)"></use><use xlink:href="#SvgjsPath4851" x="90" y="690" stroke="rgba(87, 90, 66, 1)"></use><use xlink:href="#SvgjsPath4855" x="150" y="30" stroke="rgba(87, 90, 66, 1)"></use><use xlink:href="#SvgjsPath4854" x="150" y="90" stroke="rgba(87, 90, 66, 1)"></use><use xlink:href="#SvgjsPath4855" x="150" y="150" stroke="rgba(87, 90, 66, 1)"></use><use xlink:href="#SvgjsPath4851" x="150" y="210" stroke="rgba(87, 90, 66, 1)"></use><use xlink:href="#SvgjsPath4854" x="150" y="270" stroke="rgba(87, 90, 66, 1)"></use><use xlink:href="#SvgjsPath4855" x="150" y="330" stroke="rgba(87, 90, 66, 1)"></use><use xlink:href="#SvgjsPath4854" x="150" y="390" stroke="rgba(87, 90, 66, 1)"></use><use xlink:href="#SvgjsPath4856" x="150" y="450" stroke="rgba(87, 90, 66, 1)"></use><use xlink:href="#SvgjsPath4856" x="150" y="510" stroke="rgba(87, 90, 66, 1)"></use><use xlink:href="#SvgjsPath4851" x="150" y="570" stroke="rgba(87, 90, 66, 1)"></use><use xlink:href="#SvgjsPath4856" x="150" y="630" stroke="rgba(87, 90, 66, 1)"></use><use xlink:href="#SvgjsPath4856" x="150" y="690" stroke="rgba(87, 90, 66, 1)"></use><use xlink:href="#SvgjsPath4853" x="210" y="30" stroke="rgba(87, 90, 66, 1)"></use><use xlink:href="#SvgjsPath4852" x="210" y="90" stroke="rgba(87, 90, 66, 1)" stroke-width="3"></use><use xlink:href="#SvgjsPath4851" x="210" y="150" stroke="rgba(87, 90, 66, 1)"></use><use xlink:href="#SvgjsPath4853" x="210" y="210" stroke="rgba(87, 90, 66, 1)"></use><use xlink:href="#SvgjsPath4852" x="210" y="270" stroke="rgba(87, 90, 66, 1)" stroke-width="3"></use><use xlink:href="#SvgjsPath4852" x="210" y="330" stroke="rgba(87, 90, 66, 1)" stroke-width="3"></use><use xlink:href="#SvgjsPath4854" x="210" y="390" stroke="rgba(87, 90, 66, 1)"></use><use xlink:href="#SvgjsPath4851" x="210" y="450" stroke="rgba(87, 90, 66, 1)"></use><use xlink:href="#SvgjsPath4851" x="210" y="510" stroke="rgba(87, 90, 66, 1)"></use><use xlink:href="#SvgjsPath4853" x="210" y="570" stroke="rgba(87, 90, 66, 1)"></use><use xlink:href="#SvgjsPath4855" x="210" y="630" stroke="rgba(87, 90, 66, 1)"></use><use xlink:href="#SvgjsPath4851" x="210" y="690" stroke="rgba(87, 90, 66, 1)"></use><use xlink:href="#SvgjsPath4851" x="270" y="30" stroke="rgba(87, 90, 66, 1)"></use><use xlink:href="#SvgjsPath4854" x="270" y="90" stroke="rgba(87, 90, 66, 1)"></use><use xlink:href="#SvgjsPath4851" x="270" y="150" stroke="rgba(87, 90, 66, 1)"></use><use xlink:href="#SvgjsPath4852" x="270" y="210" stroke="rgba(87, 90, 66, 1)" stroke-width="3"></use><use xlink:href="#SvgjsPath4851" x="270" y="270" stroke="rgba(87, 90, 66, 1)"></use><use xlink:href="#SvgjsPath4851" x="270" y="330" stroke="rgba(87, 90, 66, 1)"></use><use xlink:href="#SvgjsPath4855" x="270" y="390" stroke="rgba(87, 90, 66, 1)"></use><use xlink:href="#SvgjsPath4854" x="270" y="450" stroke="rgba(87, 90, 66, 1)"></use><use xlink:href="#SvgjsPath4853" x="270" y="510" stroke="rgba(87, 90, 66, 1)"></use><use xlink:href="#SvgjsPath4855" x="270" y="570" stroke="rgba(87, 90, 66, 1)"></use><use xlink:href="#SvgjsPath4851" x="270" y="630" stroke="rgba(87, 90, 66, 1)"></use><use xlink:href="#SvgjsPath4853" x="270" y="690" stroke="rgba(87, 90, 66, 1)"></use><use xlink:href="#SvgjsPath4853" x="330" y="30" stroke="rgba(87, 90, 66, 1)"></use><use xlink:href="#SvgjsPath4855" x="330" y="90" stroke="rgba(87, 90, 66, 1)"></use><use xlink:href="#SvgjsPath4851" x="330" y="150" stroke="rgba(87, 90, 66, 1)"></use><use xlink:href="#SvgjsPath4854" x="330" y="210" stroke="rgba(87, 90, 66, 1)"></use><use xlink:href="#SvgjsPath4855" x="330" y="270" stroke="rgba(87, 90, 66, 1)"></use><use xlink:href="#SvgjsPath4854" x="330" y="330" stroke="rgba(87, 90, 66, 1)"></use><use xlink:href="#SvgjsPath4856" x="330" y="390" stroke="rgba(87, 90, 66, 1)"></use><use xlink:href="#SvgjsPath4852" x="330" y="450" stroke="rgba(87, 90, 66, 1)" stroke-width="3"></use><use xlink:href="#SvgjsPath4854" x="330" y="510" stroke="rgba(87, 90, 66, 1)"></use><use xlink:href="#SvgjsPath4855" x="330" y="570" stroke="rgba(87, 90, 66, 1)"></use><use xlink:href="#SvgjsPath4851" x="330" y="630" stroke="rgba(87, 90, 66, 1)"></use><use xlink:href="#SvgjsPath4851" x="330" y="690" stroke="rgba(87, 90, 66, 1)"></use><use xlink:href="#SvgjsPath4852" x="390" y="30" stroke="rgba(87, 90, 66, 1)" stroke-width="3"></use><use xlink:href="#SvgjsPath4853" x="390" y="90" stroke="rgba(87, 90, 66, 1)"></use><use xlink:href="#SvgjsPath4852" x="390" y="150" stroke="rgba(87, 90, 66, 1)" stroke-width="3"></use><use xlink:href="#SvgjsPath4854" x="390" y="210" stroke="rgba(87, 90, 66, 1)"></use><use xlink:href="#SvgjsPath4854" x="390" y="270" stroke="rgba(87, 90, 66, 1)"></use><use xlink:href="#SvgjsPath4852" x="390" y="330" stroke="rgba(87, 90, 66, 1)" stroke-width="3"></use><use xlink:href="#SvgjsPath4851" x="390" y="390" stroke="rgba(87, 90, 66, 1)"></use><use xlink:href="#SvgjsPath4855" x="390" y="450" stroke="rgba(87, 90, 66, 1)"></use><use xlink:href="#SvgjsPath4853" x="390" y="510" stroke="rgba(87, 90, 66, 1)"></use><use xlink:href="#SvgjsPath4852" x="390" y="570" stroke="rgba(87, 90, 66, 1)" stroke-width="3"></use><use xlink:href="#SvgjsPath4855" x="390" y="630" stroke="rgba(87, 90, 66, 1)"></use><use xlink:href="#SvgjsPath4854" x="390" y="690" stroke="rgba(87, 90, 66, 1)"></use><use xlink:href="#SvgjsPath4851" x="450" y="30" stroke="rgba(87, 90, 66, 1)"></use><use xlink:href="#SvgjsPath4851" x="450" y="90" stroke="rgba(87, 90, 66, 1)"></use><use xlink:href="#SvgjsPath4851" x="450" y="150" stroke="rgba(87, 90, 66, 1)"></use><use xlink:href="#SvgjsPath4856" x="450" y="210" stroke="rgba(87, 90, 66, 1)"></use><use xlink:href="#SvgjsPath4856" x="450" y="270" stroke="rgba(87, 90, 66, 1)"></use><use xlink:href="#SvgjsPath4851" x="450" y="330" stroke="rgba(87, 90, 66, 1)"></use><use xlink:href="#SvgjsPath4854" x="450" y="390" stroke="rgba(87, 90, 66, 1)"></use><use xlink:href="#SvgjsPath4856" x="450" y="450" stroke="rgba(87, 90, 66, 1)"></use><use xlink:href="#SvgjsPath4854" x="450" y="510" stroke="rgba(87, 90, 66, 1)"></use><use xlink:href="#SvgjsPath4855" x="450" y="570" stroke="rgba(87, 90, 66, 1)"></use><use xlink:href="#SvgjsPath4856" x="450" y="630" stroke="rgba(87, 90, 66, 1)"></use><use xlink:href="#SvgjsPath4854" x="450" y="690" stroke="rgba(87, 90, 66, 1)"></use><use xlink:href="#SvgjsPath4851" x="510" y="30" stroke="rgba(87, 90, 66, 1)"></use><use xlink:href="#SvgjsPath4851" x="510" y="90" stroke="rgba(87, 90, 66, 1)"></use><use xlink:href="#SvgjsPath4854" x="510" y="150" stroke="rgba(87, 90, 66, 1)"></use><use xlink:href="#SvgjsPath4855" x="510" y="210" stroke="rgba(87, 90, 66, 1)"></use><use xlink:href="#SvgjsPath4851" x="510" y="270" stroke="rgba(87, 90, 66, 1)"></use><use xlink:href="#SvgjsPath4854" x="510" y="330" stroke="rgba(87, 90, 66, 1)"></use><use xlink:href="#SvgjsPath4854" x="510" y="390" stroke="rgba(87, 90, 66, 1)"></use><use xlink:href="#SvgjsPath4854" x="510" y="450" stroke="rgba(87, 90, 66, 1)"></use><use xlink:href="#SvgjsPath4851" x="510" y="510" stroke="rgba(87, 90, 66, 1)"></use><use xlink:href="#SvgjsPath4851" x="510" y="570" stroke="rgba(87, 90, 66, 1)"></use><use xlink:href="#SvgjsPath4851" x="510" y="630" stroke="rgba(87, 90, 66, 1)"></use><use xlink:href="#SvgjsPath4851" x="510" y="690" stroke="rgba(87, 90, 66, 1)"></use><use xlink:href="#SvgjsPath4851" x="570" y="30" stroke="rgba(87, 90, 66, 1)"></use><use xlink:href="#SvgjsPath4854" x="570" y="90" stroke="rgba(87, 90, 66, 1)"></use><use xlink:href="#SvgjsPath4851" x="570" y="150" stroke="rgba(87, 90, 66, 1)"></use><use xlink:href="#SvgjsPath4855" x="570" y="210" stroke="rgba(87, 90, 66, 1)"></use><use xlink:href="#SvgjsPath4851" x="570" y="270" stroke="rgba(87, 90, 66, 1)"></use><use xlink:href="#SvgjsPath4853" x="570" y="330" stroke="rgba(87, 90, 66, 1)"></use><use xlink:href="#SvgjsPath4853" x="570" y="390" stroke="rgba(87, 90, 66, 1)"></use><use xlink:href="#SvgjsPath4854" x="570" y="450" stroke="rgba(87, 90, 66, 1)"></use><use xlink:href="#SvgjsPath4856" x="570" y="510" stroke="rgba(87, 90, 66, 1)"></use><use xlink:href="#SvgjsPath4856" x="570" y="570" stroke="rgba(87, 90, 66, 1)"></use><use xlink:href="#SvgjsPath4856" x="570" y="630" stroke="rgba(87, 90, 66, 1)"></use><use xlink:href="#SvgjsPath4852" x="570" y="690" stroke="rgba(87, 90, 66, 1)" stroke-width="3"></use><use xlink:href="#SvgjsPath4854" x="630" y="30" stroke="rgba(87, 90, 66, 1)"></use><use xlink:href="#SvgjsPath4854" x="630" y="90" stroke="rgba(87, 90, 66, 1)"></use><use xlink:href="#SvgjsPath4852" x="630" y="150" stroke="rgba(87, 90, 66, 1)" stroke-width="3"></use><use xlink:href="#SvgjsPath4853" x="630" y="210" stroke="rgba(87, 90, 66, 1)"></use><use xlink:href="#SvgjsPath4855" x="630" y="270" stroke="rgba(87, 90, 66, 1)"></use><use xlink:href="#SvgjsPath4851" x="630" y="330" stroke="rgba(87, 90, 66, 1)"></use><use xlink:href="#SvgjsPath4852" x="630" y="390" stroke="rgba(87, 90, 66, 1)" stroke-width="3"></use><use xlink:href="#SvgjsPath4856" x="630" y="450" stroke="rgba(87, 90, 66, 1)"></use><use xlink:href="#SvgjsPath4851" x="630" y="510" stroke="rgba(87, 90, 66, 1)"></use><use xlink:href="#SvgjsPath4851" x="630" y="570" stroke="rgba(87, 90, 66, 1)"></use><use xlink:href="#SvgjsPath4852" x="630" y="630" stroke="rgba(87, 90, 66, 1)" stroke-width="3"></use><use xlink:href="#SvgjsPath4852" x="630" y="690" stroke="rgba(87, 90, 66, 1)" stroke-width="3"></use><use xlink:href="#SvgjsPath4854" x="690" y="30" stroke="rgba(87, 90, 66, 1)"></use><use xlink:href="#SvgjsPath4855" x="690" y="90" stroke="rgba(87, 90, 66, 1)"></use><use xlink:href="#SvgjsPath4854" x="690" y="150" stroke="rgba(87, 90, 66, 1)"></use><use xlink:href="#SvgjsPath4854" x="690" y="210" stroke="rgba(87, 90, 66, 1)"></use><use xlink:href="#SvgjsPath4854" x="690" y="270" stroke="rgba(87, 90, 66, 1)"></use><use xlink:href="#SvgjsPath4854" x="690" y="330" stroke="rgba(87, 90, 66, 1)"></use><use xlink:href="#SvgjsPath4851" x="690" y="390" stroke="rgba(87, 90, 66, 1)"></use><use xlink:href="#SvgjsPath4855" x="690" y="450" stroke="rgba(87, 90, 66, 1)"></use><use xlink:href="#SvgjsPath4854" x="690" y="510" stroke="rgba(87, 90, 66, 1)"></use><use xlink:href="#SvgjsPath4854" x="690" y="570" stroke="rgba(87, 90, 66, 1)"></use><use xlink:href="#SvgjsPath4856" x="690" y="630" stroke="rgba(87, 90, 66, 1)"></use><use xlink:href="#SvgjsPath4851" x="690" y="690" stroke="rgba(87, 90, 66, 1)"></use></symbol></svg>